# Blender v2.79 (sub 0) OBJ File: 'base.blend'
# www.blender.org
mtllib LogGroup1.mtl
o LogGroup.001_Cylinder.006
v -0.465643 0.183793 -0.398061
v 0.745347 0.207806 0.304026
v -0.482114 0.069474 -0.365741
v 0.728876 0.093488 0.336347
v -0.534691 0.014248 -0.273164
v 0.676298 0.038261 0.428923
v -0.592576 0.050465 -0.174562
v 0.618414 0.074479 0.527526
v -0.621859 0.156910 -0.127693
v 0.589131 0.180924 0.574394
v -0.605388 0.271229 -0.160014
v 0.605602 0.295243 0.542074
v -0.552810 0.326455 -0.252590
v 0.658179 0.350469 0.449497
v -0.494926 0.290238 -0.351193
v 0.716064 0.314252 0.350895
v -0.444062 0.187507 -0.435411
v -0.465084 0.041603 -0.394161
v 0.745905 0.065616 0.307927
v 0.766927 0.211520 0.266677
v -0.532188 -0.028882 -0.276006
v 0.678801 -0.004868 0.426081
v -0.606065 0.017342 -0.150161
v 0.604924 0.041355 0.551926
v -0.643439 0.153197 -0.090344
v 0.567550 0.177210 0.611744
v -0.622417 0.299101 -0.131594
v 0.588573 0.323114 0.570494
v -0.555313 0.369585 -0.249748
v 0.655676 0.393598 0.452340
v -0.481436 0.323362 -0.375593
v 0.729553 0.347375 0.326494
v -0.431043 0.184479 -0.378002
v -0.447514 0.070160 -0.345681
v 0.694276 0.092802 0.316287
v 0.710747 0.207120 0.283967
v -0.500092 0.014934 -0.253105
v 0.641699 0.037575 0.408864
v -0.557976 0.051151 -0.154502
v 0.583814 0.073793 0.507466
v -0.587259 0.157597 -0.107634
v 0.554531 0.180238 0.554335
v -0.570788 0.271915 -0.139954
v 0.571002 0.294556 0.522014
v -0.518211 0.327142 -0.232531
v 0.623580 0.349783 0.429438
v -0.460326 0.290924 -0.331133
v 0.681464 0.313565 0.330835
v -0.266266 0.218103 -0.743129
v 0.944724 0.242117 -0.041041
v -0.282737 0.103785 -0.710808
v 0.928253 0.127798 -0.008721
v -0.335314 0.048558 -0.618232
v 0.875675 0.072572 0.083856
v -0.393198 0.084776 -0.519629
v 0.817791 0.108789 0.182458
v -0.422482 0.191221 -0.472761
v 0.788508 0.215234 0.229327
v -0.406010 0.305539 -0.505081
v 0.804979 0.329553 0.197006
v -0.353433 0.360766 -0.597658
v 0.857557 0.384779 0.104430
v -0.295549 0.324548 -0.696260
v 0.915441 0.348562 0.005827
v -0.244685 0.221817 -0.780478
v -0.265707 0.075913 -0.739228
v 0.945282 0.099927 -0.037141
v 0.966305 0.245830 -0.078391
v -0.332811 0.005429 -0.621074
v 0.878179 0.029442 0.081014
v -0.406688 0.051652 -0.495229
v 0.804301 0.075666 0.206859
v -0.444062 0.187507 -0.435411
v 0.766927 0.211520 0.266677
v -0.423040 0.333411 -0.476661
v 0.787950 0.357424 0.225426
v -0.355936 0.403895 -0.594816
v 0.855054 0.427909 0.107272
v -0.282059 0.357672 -0.720661
v 0.928931 0.381685 -0.018573
v -0.231666 0.218790 -0.723069
v -0.248137 0.104471 -0.690749
v 0.893653 0.127112 -0.028780
v 0.910124 0.241431 -0.061101
v -0.300714 0.049244 -0.598172
v 0.841076 0.071886 0.063796
v -0.358599 0.085462 -0.499570
v 0.783192 0.108103 0.162399
v -0.387882 0.191907 -0.452701
v 0.753908 0.214548 0.209267
v -0.371411 0.306226 -0.485022
v 0.770379 0.328867 0.176947
v -0.318833 0.361452 -0.577598
v 0.822957 0.384093 0.084370
v -0.260949 0.325235 -0.676201
v 0.880841 0.347876 -0.014232
v -0.383298 0.499798 -0.550901
v 0.827692 0.523812 0.151186
v -0.399769 0.385480 -0.518581
v 0.811221 0.409493 0.183507
v -0.452346 0.330253 -0.426004
v 0.758643 0.354267 0.276083
v -0.510231 0.366471 -0.327402
v 0.700759 0.390484 0.374686
v -0.539514 0.472916 -0.280533
v 0.671476 0.496929 0.421554
v -0.523043 0.587234 -0.312854
v 0.687947 0.611248 0.389234
v -0.470465 0.642461 -0.405430
v 0.740524 0.666474 0.296657
v -0.412581 0.606243 -0.504033
v 0.798409 0.630257 0.198055
v -0.361717 0.503512 -0.588251
v -0.382740 0.357608 -0.547001
v 0.828250 0.381621 0.155087
v 0.849272 0.527525 0.113837
v -0.449843 0.287124 -0.428846
v 0.761146 0.311137 0.273241
v -0.523721 0.333347 -0.303001
v 0.687269 0.357361 0.399086
v -0.561095 0.469202 -0.243184
v 0.649895 0.493215 0.458904
v -0.540072 0.615106 -0.284434
v 0.670917 0.639119 0.417654
v -0.472968 0.685590 -0.402588
v 0.738021 0.709604 0.299499
v -0.399091 0.639367 -0.528433
v 0.811898 0.663380 0.173654
v -0.348698 0.500484 -0.530842
v -0.365169 0.386166 -0.498521
v 0.776621 0.408807 0.163447
v 0.793092 0.523126 0.131127
v -0.417747 0.330939 -0.405945
v 0.724043 0.353581 0.256024
v -0.475631 0.367157 -0.307342
v 0.666159 0.389798 0.354626
v -0.504914 0.473602 -0.260474
v 0.636876 0.496243 0.401495
v -0.488443 0.587921 -0.292794
v 0.653347 0.610562 0.369174
v -0.435866 0.643147 -0.385371
v 0.705925 0.665788 0.276598
v -0.377981 0.606930 -0.483973
v 0.763809 0.629571 0.177995
v -0.665020 0.149483 -0.052994
v 0.545970 0.173496 0.649094
v -0.681491 0.035164 -0.020673
v 0.529499 0.059178 0.681414
v -0.734069 -0.020062 0.071903
v 0.476921 0.003951 0.773991
v -0.791953 0.016155 0.170506
v 0.419037 0.040169 0.872593
v -0.821236 0.122600 0.217374
v 0.389754 0.146614 0.919462
v -0.804765 0.236919 0.185054
v 0.406225 0.260932 0.887141
v -0.752187 0.292145 0.092477
v 0.458802 0.316159 0.794565
v -0.694303 0.255928 -0.006125
v 0.516687 0.279941 0.695962
v -0.643439 0.153197 -0.090344
v -0.664462 0.007293 -0.049093
v 0.546528 0.031306 0.652994
v 0.567550 0.177210 0.611744
v -0.731565 -0.063192 0.069061
v 0.479424 -0.039178 0.771149
v -0.805443 -0.016968 0.194906
v 0.405547 0.007045 0.896994
v -0.842817 0.118887 0.254724
v 0.368173 0.142900 0.956811
v -0.821794 0.264790 0.213474
v 0.389195 0.288804 0.915561
v -0.754690 0.335275 0.095319
v 0.456299 0.359288 0.797407
v -0.680813 0.289051 -0.030526
v 0.530176 0.313065 0.671562
v -0.630420 0.150169 -0.032934
v -0.646891 0.035850 -0.000614
v 0.494899 0.058491 0.661355
v 0.511370 0.172810 0.629034
v -0.699469 -0.019376 0.091963
v 0.442322 0.003265 0.753931
v -0.757353 0.016841 0.190565
v 0.384437 0.039482 0.852534
v -0.786636 0.123286 0.237434
v 0.355154 0.145927 0.899402
v -0.770165 0.237605 0.205113
v 0.371625 0.260246 0.867082
v -0.717588 0.292831 0.112537
v 0.424203 0.315472 0.774505
v -0.659703 0.256614 0.013934
v 0.482087 0.279255 0.675903
v -0.582675 0.465488 -0.205834
v 0.628315 0.489501 0.496254
v -0.599146 0.351169 -0.173513
v 0.611843 0.375183 0.528575
v -0.651724 0.295943 -0.080937
v 0.559266 0.319956 0.621151
v -0.709608 0.332160 0.017666
v 0.501382 0.356174 0.719753
v -0.738891 0.438605 0.064534
v 0.472098 0.462619 0.766622
v -0.722420 0.552924 0.032214
v 0.488570 0.576938 0.734301
v -0.669843 0.608150 -0.060363
v 0.541147 0.632164 0.641725
v -0.611958 0.571933 -0.158965
v 0.599031 0.595947 0.543123
v -0.561095 0.469202 -0.243183
v -0.582117 0.323298 -0.201933
v 0.628873 0.347311 0.500154
v 0.649895 0.493215 0.458904
v -0.649221 0.252813 -0.083779
v 0.561769 0.276827 0.618309
v -0.723098 0.299037 0.042066
v 0.487892 0.323050 0.744154
v -0.760472 0.434892 0.101884
v 0.450518 0.458905 0.803972
v -0.739450 0.580796 0.060634
v 0.471540 0.604809 0.762721
v -0.672346 0.651280 -0.057521
v 0.538644 0.675293 0.644567
v -0.598469 0.605057 -0.183366
v 0.612521 0.629070 0.518722
v -0.548075 0.466174 -0.185774
v -0.564547 0.351855 -0.153453
v 0.577244 0.374497 0.508515
v 0.593715 0.488815 0.476194
v -0.617124 0.296629 -0.060877
v 0.524666 0.319270 0.601091
v -0.675008 0.332846 0.037725
v 0.466782 0.355488 0.699694
v -0.704292 0.439292 0.084594
v 0.437499 0.461933 0.746562
v -0.687820 0.553610 0.052273
v 0.453970 0.576252 0.714242
v -0.635243 0.608837 -0.040303
v 0.506547 0.631478 0.621665
v -0.577359 0.572619 -0.138905
v 0.564432 0.595261 0.523063
vn 0.4826 -0.3020 -0.8221
vn 0.2442 -0.8875 -0.3908
vn -0.1373 -0.9532 0.2695
vn -0.4384 -0.4605 0.7719
vn -0.4826 0.3020 0.8221
vn -0.2442 0.8875 0.3908
vn 0.1373 0.9532 -0.2695
vn 0.4384 0.4605 -0.7719
vn -0.8650 -0.0172 -0.5015
vn 0.8650 0.0172 0.5015
usemtl Log
s off
f 17//1 20//1 19//1 18//1
f 18//2 19//2 22//2 21//2
f 21//3 22//3 24//3 23//3
f 23//4 24//4 26//4 25//4
f 25//5 26//5 28//5 27//5
f 27//6 28//6 30//6 29//6
f 14//2 12//2 44//2 46//2
f 29//7 30//7 32//7 31//7
f 31//8 32//8 20//8 17//8
f 6//6 4//6 35//6 38//6
f 3//9 1//9 17//9 18//9
f 2//10 4//10 19//10 20//10
f 5//9 3//9 18//9 21//9
f 4//10 6//10 22//10 19//10
f 7//9 5//9 21//9 23//9
f 6//10 8//10 24//10 22//10
f 9//9 7//9 23//9 25//9
f 8//10 10//10 26//10 24//10
f 11//9 9//9 25//9 27//9
f 10//10 12//10 28//10 26//10
f 13//9 11//9 27//9 29//9
f 12//10 14//10 30//10 28//10
f 15//9 13//9 29//9 31//9
f 14//10 16//10 32//10 30//10
f 1//9 15//9 31//9 17//9
f 16//10 2//10 20//10 32//10
f 5//7 7//7 39//7 37//7
f 13//3 15//3 47//3 45//3
f 8//7 6//7 38//7 40//7
f 16//3 14//3 46//3 48//3
f 7//8 9//8 41//8 39//8
f 15//4 1//4 33//4 47//4
f 10//8 8//8 40//8 42//8
f 1//5 3//5 34//5 33//5
f 2//4 16//4 48//4 36//4
f 9//1 11//1 43//1 41//1
f 4//5 2//5 36//5 35//5
f 12//1 10//1 42//1 44//1
f 3//6 5//6 37//6 34//6
f 11//2 13//2 45//2 43//2
f 65//1 68//1 67//1 66//1
f 66//2 67//2 70//2 69//2
f 69//3 70//3 72//3 71//3
f 71//4 72//4 74//4 73//4
f 73//5 74//5 76//5 75//5
f 75//6 76//6 78//6 77//6
f 62//2 60//2 92//2 94//2
f 77//7 78//7 80//7 79//7
f 79//8 80//8 68//8 65//8
f 54//6 52//6 83//6 86//6
f 51//9 49//9 65//9 66//9
f 50//10 52//10 67//10 68//10
f 53//9 51//9 66//9 69//9
f 52//10 54//10 70//10 67//10
f 55//9 53//9 69//9 71//9
f 54//10 56//10 72//10 70//10
f 57//9 55//9 71//9 73//9
f 56//10 58//10 74//10 72//10
f 59//9 57//9 73//9 75//9
f 58//10 60//10 76//10 74//10
f 61//9 59//9 75//9 77//9
f 60//10 62//10 78//10 76//10
f 63//9 61//9 77//9 79//9
f 62//10 64//10 80//10 78//10
f 49//9 63//9 79//9 65//9
f 64//10 50//10 68//10 80//10
f 53//7 55//7 87//7 85//7
f 61//3 63//3 95//3 93//3
f 56//7 54//7 86//7 88//7
f 64//3 62//3 94//3 96//3
f 55//8 57//8 89//8 87//8
f 63//4 49//4 81//4 95//4
f 58//8 56//8 88//8 90//8
f 49//5 51//5 82//5 81//5
f 50//4 64//4 96//4 84//4
f 57//1 59//1 91//1 89//1
f 52//5 50//5 84//5 83//5
f 60//1 58//1 90//1 92//1
f 51//6 53//6 85//6 82//6
f 59//2 61//2 93//2 91//2
f 113//1 116//1 115//1 114//1
f 114//2 115//2 118//2 117//2
f 117//3 118//3 120//3 119//3
f 119//4 120//4 122//4 121//4
f 121//5 122//5 124//5 123//5
f 123//6 124//6 126//6 125//6
f 110//2 108//2 140//2 142//2
f 125//7 126//7 128//7 127//7
f 127//8 128//8 116//8 113//8
f 102//6 100//6 131//6 134//6
f 99//9 97//9 113//9 114//9
f 98//10 100//10 115//10 116//10
f 101//9 99//9 114//9 117//9
f 100//10 102//10 118//10 115//10
f 103//9 101//9 117//9 119//9
f 102//10 104//10 120//10 118//10
f 105//9 103//9 119//9 121//9
f 104//10 106//10 122//10 120//10
f 107//9 105//9 121//9 123//9
f 106//10 108//10 124//10 122//10
f 109//9 107//9 123//9 125//9
f 108//10 110//10 126//10 124//10
f 111//9 109//9 125//9 127//9
f 110//10 112//10 128//10 126//10
f 97//9 111//9 127//9 113//9
f 112//10 98//10 116//10 128//10
f 101//7 103//7 135//7 133//7
f 109//3 111//3 143//3 141//3
f 104//7 102//7 134//7 136//7
f 112//3 110//3 142//3 144//3
f 103//8 105//8 137//8 135//8
f 111//4 97//4 129//4 143//4
f 106//8 104//8 136//8 138//8
f 97//5 99//5 130//5 129//5
f 98//4 112//4 144//4 132//4
f 105//1 107//1 139//1 137//1
f 100//5 98//5 132//5 131//5
f 108//1 106//1 138//1 140//1
f 99//6 101//6 133//6 130//6
f 107//2 109//2 141//2 139//2
f 161//1 164//1 163//1 162//1
f 162//2 163//2 166//2 165//2
f 165//3 166//3 168//3 167//3
f 167//4 168//4 170//4 169//4
f 169//5 170//5 172//5 171//5
f 171//6 172//6 174//6 173//6
f 158//2 156//2 188//2 190//2
f 173//7 174//7 176//7 175//7
f 175//8 176//8 164//8 161//8
f 150//6 148//6 179//6 182//6
f 147//9 145//9 161//9 162//9
f 146//10 148//10 163//10 164//10
f 149//9 147//9 162//9 165//9
f 148//10 150//10 166//10 163//10
f 151//9 149//9 165//9 167//9
f 150//10 152//10 168//10 166//10
f 153//9 151//9 167//9 169//9
f 152//10 154//10 170//10 168//10
f 155//9 153//9 169//9 171//9
f 154//10 156//10 172//10 170//10
f 157//9 155//9 171//9 173//9
f 156//10 158//10 174//10 172//10
f 159//9 157//9 173//9 175//9
f 158//10 160//10 176//10 174//10
f 145//9 159//9 175//9 161//9
f 160//10 146//10 164//10 176//10
f 149//7 151//7 183//7 181//7
f 157//3 159//3 191//3 189//3
f 152//7 150//7 182//7 184//7
f 160//3 158//3 190//3 192//3
f 151//8 153//8 185//8 183//8
f 159//4 145//4 177//4 191//4
f 154//8 152//8 184//8 186//8
f 145//5 147//5 178//5 177//5
f 146//4 160//4 192//4 180//4
f 153//1 155//1 187//1 185//1
f 148//5 146//5 180//5 179//5
f 156//1 154//1 186//1 188//1
f 147//6 149//6 181//6 178//6
f 155//2 157//2 189//2 187//2
f 209//1 212//1 211//1 210//1
f 210//2 211//2 214//2 213//2
f 213//3 214//3 216//3 215//3
f 215//4 216//4 218//4 217//4
f 217//5 218//5 220//5 219//5
f 219//6 220//6 222//6 221//6
f 206//2 204//2 236//2 238//2
f 221//7 222//7 224//7 223//7
f 223//8 224//8 212//8 209//8
f 198//6 196//6 227//6 230//6
f 195//9 193//9 209//9 210//9
f 194//10 196//10 211//10 212//10
f 197//9 195//9 210//9 213//9
f 196//10 198//10 214//10 211//10
f 199//9 197//9 213//9 215//9
f 198//10 200//10 216//10 214//10
f 201//9 199//9 215//9 217//9
f 200//10 202//10 218//10 216//10
f 203//9 201//9 217//9 219//9
f 202//10 204//10 220//10 218//10
f 205//9 203//9 219//9 221//9
f 204//10 206//10 222//10 220//10
f 207//9 205//9 221//9 223//9
f 206//10 208//10 224//10 222//10
f 193//9 207//9 223//9 209//9
f 208//10 194//10 212//10 224//10
f 197//7 199//7 231//7 229//7
f 205//3 207//3 239//3 237//3
f 200//7 198//7 230//7 232//7
f 208//3 206//3 238//3 240//3
f 199//8 201//8 233//8 231//8
f 207//4 193//4 225//4 239//4
f 202//8 200//8 232//8 234//8
f 193//5 195//5 226//5 225//5
f 194//4 208//4 240//4 228//4
f 201//1 203//1 235//1 233//1
f 196//5 194//5 228//5 227//5
f 204//1 202//1 234//1 236//1
f 195//6 197//6 229//6 226//6
f 203//2 205//2 237//2 235//2
usemtl CenterLog
f 35//10 36//10 48//10 46//10 44//10 42//10 40//10 38//10
f 33//9 34//9 37//9 39//9 41//9 43//9 45//9 47//9
f 83//10 84//10 96//10 94//10 92//10 90//10 88//10 86//10
f 81//9 82//9 85//9 87//9 89//9 91//9 93//9 95//9
f 131//10 132//10 144//10 142//10 140//10 138//10 136//10 134//10
f 129//9 130//9 133//9 135//9 137//9 139//9 141//9 143//9
f 179//10 180//10 192//10 190//10 188//10 186//10 184//10 182//10
f 177//9 178//9 181//9 183//9 185//9 187//9 189//9 191//9
f 227//10 228//10 240//10 238//10 236//10 234//10 232//10 230//10
f 225//9 226//9 229//9 231//9 233//9 235//9 237//9 239//9
