# Blender v2.79 (sub 0) OBJ File: 'base.blend'
# www.blender.org
mtllib Tonneau.mtl
o Cylinder.023
v -0.651221 1.289054 0.919775
v 0.011127 1.295074 1.134985
v 0.010980 1.287078 1.186056
v -0.681372 1.281386 0.961060
v -1.065616 1.546520 0.358408
v -1.065616 1.552131 -0.341562
v -1.114309 1.559099 -0.357460
v -1.114353 1.553664 0.374092
v -1.060575 1.300124 0.356348
v -1.109278 1.292888 0.372092
v 0.011526 1.541243 1.140998
v -0.654185 1.534951 0.924695
v -0.684365 1.542418 0.965995
v 0.011458 1.549133 1.192086
v -1.060575 1.305493 -0.340086
v -1.109290 1.298549 -0.355926
v 1.088669 1.583311 -0.341561
v 1.088668 1.579015 0.358408
v 1.137198 1.587420 0.374106
v 1.137177 1.591513 -0.357433
v 0.673475 1.326648 -0.903512
v 0.011127 1.321884 -1.118722
v 0.010995 1.314833 -1.169933
v 0.703424 1.319281 -0.944997
v -0.651221 1.313807 -0.903513
v -0.681397 1.306925 -0.944916
v 1.082828 1.335327 -0.340086
v 1.131410 1.327635 -0.355988
v 0.590057 2.446986 -0.807357
v 0.953328 2.446986 -0.307357
v 1.002478 2.455294 -0.323449
v 0.620376 2.454859 -0.849338
v -0.597066 2.297911 -0.824262
v -0.968439 2.296450 -0.313111
v -1.017821 2.303513 -0.329085
v -0.627564 2.305036 -0.866248
v 0.003828 2.294618 1.025100
v 0.604722 2.298277 0.829858
v 0.635081 2.306658 0.871713
v 0.003869 2.302618 1.076866
v 0.003828 2.299331 -1.019504
v 0.003903 2.306758 -1.071355
v -0.948785 2.446986 -0.307357
v -0.585514 2.446986 -0.807357
v -0.616057 2.454110 -0.849310
v -0.998136 2.454049 -0.323428
v 0.953328 2.446986 0.310677
v 0.590057 2.446986 0.810677
v 0.620395 2.455366 0.852547
v 1.002491 2.455500 0.326620
v 0.976095 2.301695 -0.313111
v 0.604722 2.300169 -0.824262
v 0.635240 2.308045 -0.866099
v 1.025310 2.310005 -0.329003
v 0.002271 2.446986 1.001660
v -0.585514 2.446986 0.810677
v -0.616084 2.454556 0.852534
v 0.002146 2.454984 1.053426
v -0.968439 2.295506 0.318707
v -1.017736 2.302746 0.334866
v 0.677237 1.562992 0.924695
v 0.707235 1.571266 0.965974
v 1.082828 1.331216 0.356348
v 1.131412 1.323263 0.372117
v -0.654184 1.560821 -0.907849
v -0.684290 1.567850 -0.949280
v 0.673475 1.315885 0.919775
v 0.703418 1.307805 0.961131
v 0.011526 1.569261 -1.124151
v 0.011443 1.576589 -1.175323
v 0.677237 1.574241 -0.907849
v 0.707184 1.582010 -0.949262
v 0.012698 1.467572 -1.190442
v 0.717834 1.473163 -0.961258
v 1.153564 1.483406 -0.361410
v 1.153521 1.478580 0.379961
v 0.717762 1.460545 0.979726
v 0.012700 1.436043 1.208858
v -0.692437 1.428973 0.979817
v -1.128304 1.442024 0.380016
v -1.128347 1.448312 -0.361467
v -0.910711 1.453124 -0.665343
v -0.692507 1.458079 -0.961351
v 0.002153 2.454410 -1.050191
v -0.998154 2.454224 0.326615
v -0.627424 2.301133 0.871867
v 1.025224 2.309487 0.334757
v -0.948785 2.446986 0.310677
v 0.976095 2.300972 0.318707
v -0.597066 2.293559 0.829858
v 0.002271 2.446986 -0.998339
v 0.604667 0.601051 -0.824197
v 0.976009 0.602571 -0.313089
v 1.033243 0.593515 -0.331556
v 0.640189 0.592380 -0.872796
v -0.968364 0.597345 -0.313089
v -0.597022 0.598801 -0.824198
v -0.632384 0.590706 -0.873011
v -1.025685 0.589178 -0.331701
v -0.948785 0.446986 0.310677
v -0.585514 0.446986 0.810677
v -0.620998 0.437970 0.859240
v -1.006099 0.438472 0.329154
v 0.003822 0.600216 -1.019424
v 0.003968 0.591917 -1.079672
v 0.953328 0.446986 -0.307357
v 0.590057 0.446986 -0.807357
v 0.625324 0.438319 -0.856141
v 1.010488 0.437932 -0.326054
v -0.968364 0.596405 0.318676
v -1.025611 0.587888 0.337358
v -0.585514 0.446986 -0.807357
v -0.948785 0.446986 -0.307357
v -1.006084 0.438819 -0.326035
v -0.620973 0.438891 -0.856100
v -0.597022 0.594466 0.829785
v -0.632266 0.585447 0.878521
v 0.590057 0.446986 0.810677
v 0.953328 0.446986 0.310677
v 1.010499 0.437627 0.329188
v 0.625349 0.437479 0.859287
v 0.003822 0.595521 1.025011
v 0.004006 0.586115 1.085096
v 0.002156 0.438690 -1.058589
v 1.033162 0.592491 0.337241
v 0.640083 0.589659 0.878303
v 0.002164 0.437582 1.061746
v 0.002271 0.446986 1.001660
v 0.002271 0.446986 -0.998340
v 0.976009 0.601851 0.318676
v 0.604666 0.599165 0.829785
v -0.780445 2.941882 0.255980
v -0.481474 2.941882 0.667478
v -0.456252 2.814330 0.632765
v -0.739635 2.814330 0.242720
v 0.784988 -0.047910 -0.252660
v 0.486017 -0.047910 -0.664158
v -0.780445 -0.047910 0.255980
v -0.481474 -0.047910 0.667478
v 0.486017 2.941882 -0.664158
v 0.784988 2.941882 -0.252660
v 0.002271 -0.047910 0.824657
v 0.486017 -0.047910 0.667479
v 0.002271 -0.047910 -0.821336
v -0.481474 -0.047910 -0.664158
v 0.486017 2.941882 0.667479
v 0.002271 2.941882 0.824657
v -0.481474 2.941882 -0.664158
v 0.002271 2.941882 -0.821336
v 0.460795 2.814330 -0.629442
v 0.744178 2.814330 -0.239400
v -0.456252 2.814330 -0.629442
v 0.002271 2.814330 -0.778426
v 0.460795 2.814330 0.632765
v 0.002271 2.814330 0.781748
v 0.002271 0.143739 -0.740833
v -0.434155 0.143739 -0.599030
v 0.002271 0.143739 0.744153
v 0.438698 0.143739 0.602350
v -0.703882 0.143739 0.231103
v -0.434155 0.143739 0.602350
v 0.708424 0.143739 -0.227783
v 0.438698 0.143739 -0.599029
v -0.780445 -0.047910 -0.252660
v -0.780445 2.941882 -0.252660
v 0.784988 -0.047910 0.255980
v 0.784988 2.941882 0.255980
v -0.739635 2.814330 -0.239400
v 0.744178 2.814330 0.242720
v 0.708424 0.143739 0.231103
v -0.703882 0.143739 -0.227783
vn 0.7705 0.3047 -0.5598
vn 0.7659 -0.3220 -0.5565
vn -0.7659 -0.3220 0.5565
vn 0.7659 0.3220 -0.5565
vn -0.7659 0.3220 0.5565
vn 0.2926 -0.3220 0.9004
vn -0.2926 -0.3220 -0.9004
vn 0.2926 0.3220 0.9004
vn -0.2926 0.3220 -0.9004
vn -0.3056 -0.1273 -0.9436
vn -0.8022 -0.1370 0.5812
vn 0.3082 -0.1492 0.9396
vn 0.8018 -0.1389 -0.5812
vn 0.7995 0.1476 -0.5823
vn 0.3028 0.1496 0.9412
vn -0.8009 0.1340 0.5836
vn -0.3073 0.1313 -0.9425
vn -0.7705 0.3047 0.5598
vn 0.2943 0.3047 0.9058
vn -0.2943 0.3047 -0.9058
vn 0.2870 -0.3710 0.8832
vn -0.2870 -0.3710 -0.8832
vn 0.7513 -0.3710 -0.5458
vn -0.7513 -0.3710 0.5458
vn -0.2926 0.3220 0.9004
vn -0.7659 -0.3220 -0.5565
vn -0.7659 0.3220 -0.5565
vn 0.9467 -0.3220 0.0000
vn 0.2926 -0.3220 -0.9004
vn 0.9467 0.3220 0.0000
vn 0.2926 0.3220 -0.9004
vn -0.2926 -0.3220 0.9004
vn -0.8020 -0.1261 -0.5838
vn -0.3050 -0.1453 0.9412
vn 0.9895 -0.1446 -0.0005
vn 0.3068 -0.1325 -0.9425
vn 0.9880 0.1544 0.0006
vn -0.3067 0.1412 0.9413
vn 0.3055 0.1386 -0.9421
vn -0.8030 0.1277 -0.5822
vn 0.0000 1.0000 0.0000
vn 0.7705 0.3047 0.5598
vn 0.2943 0.3047 -0.9058
vn -0.2943 0.3047 0.9058
vn -0.9524 0.3047 0.0000
vn 0.0000 -1.0000 -0.0000
vn 0.2870 -0.3710 -0.8832
vn -0.2870 -0.3710 0.8832
vn -0.9286 -0.3710 0.0000
vn 0.7513 -0.3710 0.5458
vn 0.7659 -0.3220 0.5565
vn -0.7513 -0.3710 -0.5458
vn 0.7659 0.3220 0.5565
vn -0.9467 -0.3220 0.0000
vn -0.9467 0.3220 0.0000
vn -0.9916 -0.1295 -0.0006
vn 0.8012 -0.1485 0.5796
vn 0.7979 0.1551 0.5824
vn -0.9916 0.1291 0.0006
vn -0.7705 0.3047 -0.5598
vn 0.9524 0.3047 0.0000
vn 0.9286 -0.3710 0.0000
vn 0.0569 -0.9872 -0.1488
vn 0.1433 0.9896 0.0076
vn 0.1133 -0.9883 -0.1017
vn 0.0397 0.9877 -0.1512
vn 0.1440 -0.9895 -0.0077
vn -0.1687 0.9857 0.0058
vn -0.0392 -0.9892 0.1413
vn 0.1204 -0.9900 0.0732
vn 0.1293 0.9888 -0.0745
vn -0.1168 -0.9882 0.0995
vn -0.1314 0.9868 0.0951
vn -0.1138 -0.9898 -0.0855
vn 0.0563 -0.9864 0.1543
vn -0.0428 -0.9893 -0.1395
vn 0.1150 0.9898 0.0836
vn -0.1371 0.9856 -0.0995
vn 0.1328 -0.9867 -0.0932
vn 0.0490 -0.9882 -0.1454
vn 0.0479 0.9877 -0.1485
vn -0.1435 -0.9897 -0.0013
vn 0.0543 -0.9899 0.1311
vn -0.1500 0.9853 -0.0816
vn -0.1590 -0.9873 -0.0059
vn 0.1079 0.9898 0.0933
vn -0.0795 0.9860 -0.1468
vn -0.1192 -0.9864 -0.1130
vn 0.0338 0.9892 0.1424
vn -0.1388 0.9867 0.0850
vn -0.0231 -0.9862 -0.1641
vn -0.0542 0.9881 0.1436
vn 0.3073 -0.1292 -0.9428
vn 0.8026 -0.1354 -0.5810
vn 0.9900 -0.1409 -0.0009
vn 0.8024 -0.1446 0.5790
vn 0.3100 -0.1454 0.9396
vn -0.3047 -0.1416 0.9419
vn -0.8030 -0.1337 0.5807
vn -0.9920 -0.1264 -0.0010
vn -0.8010 -0.1315 -0.5840
vn -0.3052 -0.1242 -0.9441
vn 0.7997 0.1426 -0.5833
vn 0.3015 0.1444 0.9425
vn 0.7979 0.1497 0.5839
vn -0.8009 0.1296 0.5846
vn 0.9888 0.1491 0.0009
vn -0.3073 0.1365 0.9418
vn -0.9922 0.1249 0.0010
vn 0.3053 0.1340 -0.9428
vn -0.3080 0.1270 -0.9429
vn -0.8026 0.1348 -0.5811
vn -0.8025 0.1275 -0.5829
vn -0.3065 0.1311 -0.9428
vn 0.3059 0.1386 -0.9419
vn -0.9917 0.1289 0.0001
vn -0.3060 0.1413 0.9415
vn 0.9880 0.1545 0.0001
vn -0.8016 0.1340 0.5827
vn 0.7990 0.1553 0.5809
vn 0.3051 0.1497 0.9405
vn 0.8000 0.1477 -0.5815
vn 0.1200 0.9889 -0.0875
vn 0.1395 -0.9855 0.0961
vn -0.1218 -0.9889 0.0851
vn -0.0510 0.9864 -0.1561
vn 0.0448 0.9893 0.1388
vn 0.1686 -0.9857 -0.0009
vn -0.1687 0.9857 -0.0002
vn 0.1434 0.9897 -0.0001
vn -0.0464 -0.9877 0.1490
vn -0.0477 0.9882 0.1457
vn 0.1226 0.9882 -0.0916
vn -0.1150 0.9901 -0.0807
vn 0.1222 -0.9885 -0.0893
vn 0.0444 0.9892 -0.1397
vn -0.1240 -0.9882 0.0897
vn -0.1441 0.9896 0.0017
vn 0.1136 -0.9901 0.0825
vn -0.1206 0.9885 0.0917
vn -0.1317 -0.9866 -0.0959
vn -0.0504 0.9873 0.1509
vn 0.3064 -0.1324 -0.9427
vn 0.8013 -0.1390 -0.5819
vn 0.9895 -0.1448 -0.0001
vn 0.8002 -0.1487 0.5810
vn 0.3060 -0.1493 0.9403
vn -0.3056 -0.1453 0.9410
vn -0.8015 -0.1370 0.5821
vn -0.9916 -0.1294 -0.0001
vn -0.8025 -0.1259 -0.5832
vn -0.3064 -0.1271 -0.9434
vn -0.0505 -0.9866 -0.1553
vn -0.0457 0.9899 -0.1341
vn 0.0436 -0.9899 0.1346
vn 0.1589 0.9873 0.0013
vn -0.1590 -0.9873 -0.0002
vn 0.1293 0.9866 0.0991
vn 0.1440 -0.9896 -0.0003
vn -0.0455 -0.9892 0.1392
vn 0.0453 0.9866 0.1570
vn 0.0489 -0.9873 -0.1514
usemtl Material.000
s 1
f 132//1 133//1 134//1 135//1
f 107//2 106//2 136//2 137//2
f 101//3 100//3 138//3 139//3
f 30//4 29//4 140//4 141//4
f 88//5 56//5 133//5 132//5
f 118//6 128//6 142//6 143//6
f 112//7 129//7 144//7 145//7
f 55//8 48//8 146//8 147//8
f 91//9 44//9 148//9 149//9
f 97//10 25//10 22//10 104//10
f 116//11 1//11 9//11 110//11
f 131//12 67//12 2//12 122//12
f 92//13 21//13 27//13 93//13
f 17//14 71//14 52//14 51//14
f 11//15 61//15 38//15 37//15
f 5//16 12//16 90//16 59//16
f 69//17 65//17 33//17 41//17
f 141//18 140//18 150//18 151//18
f 149//19 148//19 152//19 153//19
f 147//20 146//20 154//20 155//20
f 145//21 144//21 156//21 157//21
f 143//22 142//22 158//22 159//22
f 139//23 138//23 160//23 161//23
f 137//24 136//24 162//24 163//24
usemtl Material.001
f 56//25 55//25 147//25 133//25
f 113//26 112//26 145//26 164//26
f 44//27 43//27 165//27 148//27
f 106//28 119//28 166//28 136//28
f 129//29 107//29 137//29 144//29
f 47//30 30//30 141//30 167//30
f 29//31 91//31 149//31 140//31
f 128//32 101//32 139//32 142//32
f 96//33 15//33 25//33 97//33
f 122//34 2//34 1//34 116//34
f 93//35 27//35 63//35 130//35
f 104//36 22//36 21//36 92//36
f 18//37 17//37 51//37 89//37
f 12//38 11//38 37//38 90//38
f 71//39 69//39 41//39 52//39
f 65//40 6//40 34//40 33//40
f 150//41 153//41 152//41 168//41 135//41 134//41 155//41 154//41 169//41 151//41
f 148//42 165//42 168//42 152//42
f 133//43 147//43 155//43 134//43
f 140//44 149//44 153//44 150//44
f 167//45 141//45 151//45 169//45
f 156//46 163//46 162//46 170//46 159//46 158//46 161//46 160//46 171//46 157//46
f 142//47 139//47 161//47 158//47
f 144//48 137//48 163//48 156//48
f 136//49 166//49 170//49 162//49
f 164//50 145//50 157//50 171//50
usemtl Material.006
f 119//51 118//51 143//51 166//51
f 166//52 143//52 159//52 170//52
f 48//53 47//53 167//53 146//53
f 100//54 113//54 164//54 138//54
f 43//55 88//55 132//55 165//55
f 110//56 9//56 15//56 96//56
f 130//57 63//57 67//57 131//57
f 61//58 18//58 89//58 38//58
f 6//59 5//59 59//59 34//59
f 146//60 167//60 169//60 154//60
f 165//61 132//61 135//61 168//61
f 138//62 164//62 171//62 160//62
usemtl Material.007
f 1//63 2//63 3//63 4//63
f 5//64 6//64 7//64 8//64
f 9//65 1//65 4//65 10//65
f 11//66 12//66 13//66 14//66
f 15//67 9//67 10//67 16//67
f 17//68 18//68 19//68 20//68
f 21//69 22//69 23//69 24//69
f 25//70 15//70 16//70 26//70
f 12//71 5//71 8//71 13//71
f 27//72 21//72 24//72 28//72
f 29//73 30//73 31//73 32//73
f 33//74 34//74 35//74 36//74
f 37//75 38//75 39//75 40//75
f 41//76 33//76 36//76 42//76
f 43//77 44//77 45//77 46//77
f 47//78 48//78 49//78 50//78
f 51//79 52//79 53//79 54//79
f 52//80 41//80 42//80 53//80
f 55//81 56//81 57//81 58//81
f 34//82 59//82 60//82 35//82
f 22//83 25//83 26//83 23//83
f 18//84 61//84 62//84 19//84
f 63//85 27//85 28//85 64//85
f 6//86 65//86 66//86 7//86
f 61//87 11//87 14//87 62//87
f 67//88 63//88 64//88 68//88
f 65//89 69//89 70//89 66//89
f 71//90 17//90 20//90 72//90
f 2//91 67//91 68//91 3//91
f 69//92 71//92 72//92 70//92
f 23//93 73//93 74//93 24//93
f 24//94 74//94 75//94 28//94
f 28//95 75//95 76//95 64//95
f 64//96 76//96 77//96 68//96
f 68//97 77//97 78//97 3//97
f 3//98 78//98 79//98 4//98
f 4//99 79//99 80//99 10//99
f 10//100 80//100 81//100 16//100
f 16//101 81//101 82//101 83//101 26//101
f 26//102 83//102 73//102 23//102
f 75//103 74//103 72//103 20//103
f 78//104 77//104 62//104 14//104
f 77//105 76//105 19//105 62//105
f 80//106 79//106 13//106 8//106
f 76//107 75//107 20//107 19//107
f 79//108 78//108 14//108 13//108
f 81//109 80//109 8//109 7//109
f 74//110 73//110 70//110 72//110
f 73//111 83//111 66//111 70//111
f 83//112 82//112 81//112 7//112 66//112
f 36//113 35//113 46//113 45//113
f 42//114 36//114 45//114 84//114
f 53//115 42//115 84//115 32//115
f 35//116 60//116 85//116 46//116
f 86//117 40//117 58//117 57//117
f 87//118 54//118 31//118 50//118
f 60//119 86//119 57//119 85//119
f 39//120 87//120 50//120 49//120
f 40//121 39//121 49//121 58//121
f 54//122 53//122 32//122 31//122
f 56//123 88//123 85//123 57//123
f 38//124 89//124 87//124 39//124
f 59//125 90//125 86//125 60//125
f 48//126 55//126 58//126 49//126
f 44//127 91//127 84//127 45//127
f 89//128 51//128 54//128 87//128
f 30//129 47//129 50//129 31//129
f 88//130 43//130 46//130 85//130
f 90//131 37//131 40//131 86//131
f 91//132 29//132 32//132 84//132
f 92//133 93//133 94//133 95//133
f 96//134 97//134 98//134 99//134
f 100//135 101//135 102//135 103//135
f 104//136 92//136 95//136 105//136
f 106//137 107//137 108//137 109//137
f 110//138 96//138 99//138 111//138
f 112//139 113//139 114//139 115//139
f 116//140 110//140 111//140 117//140
f 118//141 119//141 120//141 121//141
f 122//142 116//142 117//142 123//142
f 124//143 105//143 95//143 108//143
f 108//144 95//144 94//144 109//144
f 109//145 94//145 125//145 120//145
f 120//146 125//146 126//146 121//146
f 121//147 126//147 123//147 127//147
f 127//148 123//148 117//148 102//148
f 102//149 117//149 111//149 103//149
f 103//150 111//150 99//150 114//150
f 114//151 99//151 98//151 115//151
f 115//152 98//152 105//152 124//152
f 128//153 118//153 121//153 127//153
f 97//154 104//154 105//154 98//154
f 129//155 112//155 115//155 124//155
f 93//156 130//156 125//156 94//156
f 119//157 106//157 109//157 120//157
f 130//158 131//158 126//158 125//158
f 113//159 100//159 103//159 114//159
f 107//160 129//160 124//160 108//160
f 131//161 122//161 123//161 126//161
f 101//162 128//162 127//162 102//162
