# Blender v2.79 (sub 0) OBJ File: 'base.blend'
# www.blender.org
mtllib Tower.mtl
o Cylinder_Cylinder.006
v 0.000000 4.248051 -1.000000
v 0.000000 6.223588 -1.000000
v 0.587785 4.248051 -0.809017
v 0.587785 6.223588 -0.809017
v 0.951057 4.248051 -0.309017
v 0.951057 6.223588 -0.309017
v 0.951056 4.248051 0.309017
v 0.951056 6.248051 0.309017
v 0.587785 4.248051 0.809017
v 0.587785 6.248051 0.809017
v -0.000000 4.248051 1.000000
v -0.000000 6.248051 1.000000
v -0.587785 4.248051 0.809017
v -0.587785 6.248051 0.809017
v -0.951056 4.248051 0.309017
v -0.951056 6.248051 0.309017
v -0.951056 4.248051 -0.309017
v -0.951056 6.248051 -0.309017
v -0.587785 4.248051 -0.809017
v -0.587785 6.223588 -0.809017
v 0.771588 6.683193 -1.062000
v 0.000000 6.683193 -1.312704
v 1.248456 6.683193 -0.405648
v 1.248456 6.683193 0.405648
v 0.771588 6.683193 1.062000
v -0.000000 6.683193 1.312704
v -0.771588 6.683193 1.062000
v -1.248456 6.683193 0.405648
v -1.248456 6.683193 -0.405648
v -0.771588 6.683193 -1.062000
v 0.771588 7.000411 -1.062000
v 0.000000 7.000411 -1.312704
v 1.248456 7.000411 -0.405648
v 1.248456 7.000411 0.405648
v 0.771588 7.000411 1.062000
v -0.000000 7.000411 1.312704
v -0.771588 7.000411 1.062000
v -1.248456 7.000411 0.405648
v -1.248456 7.000411 -0.405648
v -0.771588 7.000411 -1.062000
v 1.460920 6.683193 -0.560012
v 0.984053 6.683193 -1.216364
v 0.984052 6.683193 1.216364
v 1.460920 6.683193 0.560012
v -0.852742 6.683193 1.311767
v -0.081154 6.683193 1.562471
v -1.511076 6.683193 -0.405648
v -1.511076 6.683193 0.405648
v -0.081154 6.683193 -1.562471
v -0.852742 6.683193 -1.311767
v 1.460920 7.000411 -0.560012
v 0.984053 7.000411 -1.216364
v 0.984052 7.000411 1.216364
v 1.460920 7.000411 0.560012
v -0.852742 7.000411 1.311767
v -0.081154 7.000411 1.562471
v -1.511076 7.000411 -0.405648
v -1.511076 7.000411 0.405648
v -0.081154 7.000411 -1.562471
v -0.852742 7.000411 -1.311767
v 1.248456 7.419756 -0.405648
v 0.771588 7.419756 -1.062000
v 0.771588 7.419756 1.062000
v 1.248456 7.419756 0.405648
v -0.771588 7.419756 1.062000
v -0.000000 7.419756 1.312704
v -1.248456 7.419756 -0.405648
v -1.248456 7.419756 0.405648
v 0.000000 7.419756 -1.312704
v -0.771588 7.419756 -1.062000
v 1.460920 7.419756 -0.560012
v 0.984053 7.419756 -1.216364
v 0.984052 7.419756 1.216364
v 1.460920 7.419756 0.560012
v -0.852742 7.419756 1.311767
v -0.081154 7.419756 1.562471
v -1.511076 7.419756 -0.405648
v -1.511076 7.419756 0.405648
v -0.081154 7.419756 -1.562471
v -0.852742 7.419756 -1.311767
v 0.771588 6.678733 -1.062000
v 0.000000 6.678733 -1.312704
v 1.248456 6.678733 -0.405648
v 1.248456 6.678733 0.405648
v 0.771588 6.678733 1.062000
v -0.000000 6.678733 1.312704
v -0.771588 6.678733 1.062000
v -1.248456 6.678733 0.405648
v -1.248456 6.678733 -0.405648
v -0.771588 6.678733 -1.062000
v 0.000000 0.464123 -1.000000
v 0.587785 0.464123 -0.809017
v 0.951057 0.464123 -0.309017
v 0.951057 0.464123 0.309017
v 0.587785 0.464123 0.809017
v 0.000000 0.464123 1.000000
v -0.587785 0.464123 0.809017
v -0.951056 0.464123 0.309017
v -0.951056 0.464123 -0.309017
v -0.587785 0.464123 -0.809017
v 0.803996 6.683193 -1.161741
v 0.032408 6.683193 -1.412446
v 1.353330 6.683193 0.405648
v 1.353330 6.683193 -0.405648
v 0.032408 6.683193 1.412446
v 0.803996 6.683193 1.161741
v -0.856433 6.683193 -1.123644
v -1.333301 6.683193 -0.467292
v 0.803996 7.000411 -1.161741
v 0.032408 7.000411 -1.412446
v 1.353330 7.000411 0.405648
v 1.353330 7.000411 -0.405648
v 0.032408 7.000411 1.412446
v 0.803996 7.000411 1.161741
v -1.163610 7.000411 0.344004
v -0.686743 7.000411 1.000356
v -0.856433 7.000411 -1.123644
v -1.333301 7.000411 -0.467292
v -1.163610 6.678733 0.344004
v -0.686743 6.678733 1.000356
v 0.000000 -0.000735 -1.000000
v 0.587785 -0.000735 -0.809017
v 0.951057 -0.000735 -0.309017
v 0.951057 -0.000735 0.309017
v 0.587785 -0.000735 0.809017
v 0.000000 -0.000735 1.000000
v -0.587785 -0.000735 0.809017
v -0.951056 -0.000735 0.309017
v -0.951056 -0.000735 -0.309017
v -0.587785 -0.000735 -0.809017
v 0.730956 0.464123 -0.913037
v 1.094227 0.464123 -0.413037
v 1.094227 0.464123 0.413037
v 0.730956 0.464123 0.913037
v -0.054686 0.464123 1.168307
v -0.642472 0.464123 0.977324
v -1.128025 0.464123 0.309017
v -1.128025 0.464123 -0.309017
v -0.642471 0.464123 -0.977324
v -0.054686 0.464123 -1.168307
v 0.730956 -0.000735 -0.913037
v 1.094227 -0.000735 -0.413037
v 1.094227 -0.000735 0.413037
v 0.730956 -0.000735 0.913037
v -0.054686 -0.000735 1.168307
v -0.642472 -0.000735 0.977324
v -1.128025 -0.000735 0.309017
v -1.128025 -0.000735 -0.309017
v -0.642471 -0.000735 -0.977324
v -0.054686 -0.000735 -1.168307
v 0.648710 -0.000735 -0.996523
v 0.648710 0.464123 -0.996523
v 0.060925 0.464123 -1.187506
v 0.060925 -0.000735 -1.187506
v 0.791881 -0.000735 -1.100543
v 0.791881 0.464123 -1.100543
v 0.006238 0.464123 -1.355814
v 0.006238 -0.000735 -1.355814
v -0.727628 0.464123 -0.910619
v -0.727628 -0.000735 -0.910619
v -1.090899 -0.000735 -0.410619
v -1.090899 0.464123 -0.410619
v -0.782314 0.464123 -1.078926
v -0.782314 -0.000735 -1.078926
v -1.267868 -0.000735 -0.410619
v -1.267868 0.464123 -0.410619
v -0.713438 0.464123 0.900309
v -0.713438 -0.000735 0.900309
v -1.076709 0.464123 0.400309
v -1.076709 -0.000735 0.400309
v -0.768124 0.464123 1.068616
v -0.768124 -0.000735 1.068616
v -1.253677 0.464123 0.400309
v -1.253677 -0.000735 0.400309
v 0.058608 0.464123 1.180377
v 0.058608 -0.000735 1.180377
v 0.646393 -0.000735 0.989394
v 0.646393 0.464123 0.989394
v 0.003922 0.464123 1.348684
v 0.003922 -0.000735 1.348684
v 0.789564 -0.000735 1.093413
v 0.789564 0.464123 1.093413
v 1.146928 0.464123 -0.309017
v 1.146928 -0.000735 -0.309017
v 1.146928 0.464123 0.309017
v 1.146928 -0.000735 0.309017
v 1.290099 0.464123 -0.413037
v 1.290099 -0.000735 -0.413037
v 1.290099 0.464123 0.413037
v 1.290099 -0.000735 0.413037
v 0.587785 0.799036 -0.809017
v 0.951057 0.799036 -0.309017
v 0.951057 0.799036 0.309017
v 0.587785 0.799036 0.809017
v 0.000000 0.799036 1.000000
v -0.587785 0.799036 0.809017
v -0.951056 0.799036 0.309017
v -0.951056 0.799036 -0.309017
v -0.587785 0.799036 -0.809017
v 0.000000 0.799036 -1.000000
v 0.730956 0.799036 -0.913037
v 1.094227 0.799036 -0.413037
v 1.094227 0.799036 0.413037
v 0.730956 0.799036 0.913037
v -0.054686 0.799036 1.168307
v -0.642472 0.799036 0.977324
v -1.128025 0.799036 0.309017
v -1.128025 0.799036 -0.309017
v -0.642471 0.799036 -0.977324
v -0.054686 0.799036 -1.168307
v 0.000000 5.856101 -1.000000
v 0.587785 5.856101 -0.809017
v 0.951057 5.856101 -0.309017
v 0.951056 5.856101 0.309017
v 0.587785 5.856101 0.809017
v -0.000000 5.856101 1.000000
v -0.587785 5.856101 0.809017
v -0.951056 5.856101 0.309017
v -0.951056 5.856101 -0.309017
v -0.587785 5.856101 -0.809017
v 0.632056 6.248051 -0.945267
v 0.044270 6.248051 -1.136250
v 0.044270 5.856101 -1.136250
v 1.094319 6.248051 0.309017
v 1.094319 6.248051 -0.309017
v 0.044270 6.248051 1.136250
v 0.632056 6.248051 0.945268
v -1.066958 6.248051 0.393225
v -0.703687 6.248051 0.893224
v -0.703686 6.248051 -0.893225
v -1.066958 6.248051 -0.393225
v 0.632056 5.856101 -0.945267
v 1.094319 5.856101 -0.309017
v 1.094319 5.856101 0.309017
v 0.632056 5.856101 0.945268
v 0.044270 5.856101 1.136250
v -0.703687 5.856101 0.893224
v -1.066958 5.856101 0.393225
v -1.066958 5.856101 -0.393225
v -0.703686 5.856101 -0.893225
vn -0.9511 0.0000 0.3090
vn 0.8090 0.0000 -0.5878
vn 0.0000 -1.0000 0.0000
vn 0.8090 0.0000 0.5878
vn 0.9511 0.0000 -0.3090
vn -0.3090 0.0000 0.9511
vn 0.0000 1.0000 0.0000
vn -1.0000 0.0000 0.0000
vn -0.8256 -0.5643 0.0000
vn -0.3090 0.0000 -0.9511
vn 0.0000 0.0000 1.0000
vn -0.6679 -0.5643 0.4853
vn -0.2551 -0.5643 0.7852
vn 0.2551 -0.5643 0.7852
vn 0.6679 -0.5643 0.4853
vn 0.2594 -0.5433 -0.7985
vn 0.8327 -0.5536 0.0095
vn 0.6792 -0.5433 -0.4935
vn -0.2594 -0.5433 -0.7985
vn -0.6793 -0.5536 -0.4818
vn 0.5878 0.0000 0.8090
vn -0.5878 0.0000 -0.8090
vn 0.0000 0.0000 -1.0000
vn 0.9511 0.0000 0.3090
vn -0.8090 0.0000 0.5878
vn 0.5878 0.0000 -0.8090
vn -0.9511 0.0000 -0.3090
vn 0.3090 0.0000 -0.9511
vn -0.5878 0.0000 0.8090
vn 1.0000 0.0000 0.0000
vn 0.3090 0.0000 0.9511
vn -0.8090 0.0000 -0.5878
vn -0.0851 0.9962 -0.0197
vn -0.0520 0.9857 0.1601
vn 0.0804 0.9962 0.0340
usemtl None
s off
f 12//1 216//1 236//1 226//1
f 212//2 4//2 6//2 213//2
f 212//3 211//3 223//3 232//3
f 214//4 8//4 10//4 215//4
f 215//5 10//5 227//5 235//5
f 216//6 12//6 14//6 217//6
f 10//7 12//7 226//7 227//7
f 218//8 16//8 18//8 219//8
f 18//9 16//9 28//9 29//9
f 220//3 219//3 239//3 240//3
f 220//10 20//10 2//10 211//10
f 11//6 13//6 97//6 96//6
f 28//11 38//11 58//11 48//11
f 16//12 14//12 27//12 28//12
f 14//13 12//13 26//13 27//13
f 12//14 10//14 25//14 26//14
f 10//15 8//15 24//15 25//15
f 4//16 2//16 22//16 21//16
f 8//17 6//17 23//17 24//17
f 6//18 4//18 21//18 23//18
f 2//19 20//19 30//19 22//19
f 20//20 18//20 29//20 30//20
f 31//6 32//6 82//6 81//6
f 37//21 87//21 120//21 116//21
f 21//22 31//22 52//22 42//22
f 26//3 25//3 106//3 105//3
f 25//3 24//3 44//3 43//3
f 38//7 37//7 116//7 115//7
f 39//23 57//23 77//23 67//23
f 31//24 21//24 101//24 109//24
f 32//5 22//5 49//5 59//5
f 28//25 27//25 37//25 38//25
f 43//4 44//4 54//4 53//4
f 47//8 48//8 58//8 57//8
f 41//2 42//2 52//2 51//2
f 45//6 46//6 56//6 55//6
f 49//10 50//10 60//10 59//10
f 54//26 34//26 64//26 74//26
f 27//3 26//3 46//3 45//3
f 39//23 29//23 47//23 57//23
f 37//27 55//27 75//27 65//27
f 26//24 36//24 56//24 46//24
f 36//28 37//28 65//28 66//28
f 29//3 28//3 48//3 47//3
f 33//21 23//21 41//21 51//21
f 24//26 34//26 54//26 44//26
f 55//6 56//6 76//6 75//6
f 30//1 40//1 60//1 50//1
f 23//3 21//3 42//3 41//3
f 35//29 25//29 43//29 53//29
f 22//3 30//3 50//3 49//3
f 37//27 27//27 45//27 55//27
f 66//7 65//7 75//7 76//7
f 68//7 67//7 77//7 78//7
f 62//7 61//7 71//7 72//7
f 70//7 69//7 79//7 80//7
f 64//7 63//7 73//7 74//7
f 57//8 58//8 78//8 77//8
f 56//24 36//24 66//24 76//24
f 35//29 53//29 73//29 63//29
f 59//10 60//10 80//10 79//10
f 38//30 39//30 67//30 68//30
f 31//25 33//25 61//25 62//25
f 52//22 31//22 62//22 72//22
f 40//31 32//31 69//31 70//31
f 33//21 51//21 71//21 61//21
f 51//2 52//2 72//2 71//2
f 34//32 35//32 63//32 64//32
f 60//1 40//1 70//1 80//1
f 58//11 38//11 68//11 78//11
f 53//4 54//4 74//4 73//4
f 32//5 59//5 79//5 69//5
f 81//7 82//7 90//7 89//7 88//7 87//7 86//7 85//7 84//7 83//7
f 39//30 38//30 88//30 89//30
f 36//10 35//10 85//10 86//10
f 33//25 31//25 81//25 83//25
f 40//4 39//4 89//4 90//4
f 37//28 36//28 86//28 87//28
f 34//8 33//8 83//8 84//8
f 32//31 40//31 90//31 82//31
f 22//27 32//27 110//27 102//27
f 35//32 34//32 84//32 85//32
f 95//31 96//31 126//31 125//31
f 9//31 11//31 96//31 95//31
f 7//4 9//4 95//4 94//4
f 1//28 3//28 92//28 91//28
f 5//30 7//30 94//30 93//30
f 3//2 5//2 93//2 92//2
f 19//10 1//10 91//10 100//10
f 17//32 19//32 100//32 99//32
f 15//8 17//8 99//8 98//8
f 13//25 15//25 98//25 97//25
f 101//28 102//28 110//28 109//28
f 105//31 106//31 114//31 113//31
f 107//32 108//32 118//32 117//32
f 103//30 104//30 112//30 111//30
f 115//2 116//2 120//2 119//2
f 32//7 31//7 109//7 110//7
f 29//29 39//29 118//29 108//29
f 39//7 40//7 117//7 118//7
f 88//22 38//22 115//22 119//22
f 36//1 26//1 105//1 113//1
f 33//7 34//7 111//7 112//7
f 23//23 33//23 112//23 104//23
f 21//3 22//3 102//3 101//3
f 87//3 88//3 119//3 120//3
f 34//11 24//11 103//11 111//11
f 30//3 29//3 108//3 107//3
f 40//26 30//26 107//26 117//26
f 25//5 35//5 114//5 106//5
f 35//7 36//7 113//7 114//7
f 24//3 23//3 104//3 103//3
f 121//3 122//3 123//3 124//3 125//3 126//3 127//3 128//3 129//3 130//3
f 92//25 93//25 192//25 191//25
f 99//32 100//32 130//32 129//32
f 136//6 135//6 205//6 206//6
f 93//30 94//30 124//30 123//30
f 138//7 99//7 162//7 166//7
f 97//25 98//25 128//25 127//25
f 129//3 128//3 147//3 148//3
f 91//28 92//28 122//28 121//28
f 148//29 138//29 166//29 165//29
f 131//2 132//2 142//2 141//2
f 135//6 136//6 146//6 145//6
f 139//10 140//10 150//10 149//10
f 133//4 134//4 144//4 143//4
f 137//8 138//8 148//8 147//8
f 123//3 122//3 141//3 142//3
f 136//7 97//7 167//7 171//7
f 121//3 130//3 149//3 150//3
f 123//3 142//3 188//3 184//3
f 137//11 98//11 197//11 207//11
f 134//7 95//7 178//7 182//7
f 125//3 124//3 143//3 144//3
f 122//27 92//27 152//27 151//27
f 145//3 126//3 176//3 180//3
f 147//3 128//3 170//3 174//3
f 99//23 138//23 208//23 198//23
f 94//7 133//7 189//7 185//7
f 127//3 126//3 145//3 146//3
f 92//7 131//7 156//7 152//7
f 97//27 136//27 206//27 196//27
f 153//5 154//5 158//5 157//5
f 151//22 152//22 156//22 155//22
f 131//24 141//24 155//24 156//24
f 91//24 121//24 154//24 153//24
f 150//27 140//27 157//27 158//27
f 140//7 91//7 153//7 157//7
f 121//3 150//3 158//3 154//3
f 141//3 122//3 151//3 155//3
f 162//23 161//23 165//23 166//23
f 160//1 159//1 163//1 164//1
f 100//7 139//7 163//7 159//7
f 130//29 100//29 159//29 160//29
f 139//26 149//26 164//26 163//26
f 129//3 148//3 165//3 161//3
f 149//3 130//3 160//3 164//3
f 99//26 129//26 161//26 162//26
f 167//27 168//27 172//27 171//27
f 170//11 169//11 173//11 174//11
f 97//22 127//22 168//22 167//22
f 146//21 136//21 171//21 172//21
f 128//21 98//21 169//21 170//21
f 127//3 146//3 172//3 168//3
f 137//22 147//22 174//22 173//22
f 98//7 137//7 173//7 169//7
f 176//24 175//24 179//24 180//24
f 178//29 177//29 181//29 182//29
f 95//1 125//1 177//1 178//1
f 144//5 134//5 182//5 181//5
f 125//3 144//3 181//3 177//3
f 96//7 135//7 179//7 175//7
f 126//5 96//5 175//5 176//5
f 135//1 145//1 180//1 179//1
f 186//26 185//26 189//26 190//26
f 183//21 184//21 188//21 187//21
f 132//7 93//7 183//7 187//7
f 93//11 123//11 184//11 183//11
f 143//3 124//3 186//3 190//3
f 142//23 132//23 187//23 188//23
f 124//23 94//23 185//23 186//23
f 133//11 143//11 190//11 189//11
f 199//7 200//7 210//7 209//7
f 191//7 192//7 202//7 201//7
f 193//7 194//7 204//7 203//7
f 195//7 196//7 206//7 205//7
f 197//7 198//7 208//7 207//7
f 93//21 132//21 202//21 192//21
f 100//31 91//31 200//31 199//31
f 138//8 137//8 207//8 208//8
f 133//26 94//26 193//26 203//26
f 131//22 92//22 191//22 201//22
f 140//10 139//10 209//10 210//10
f 94//32 95//32 194//32 193//32
f 91//5 140//5 210//5 200//5
f 139//1 100//1 199//1 209//1
f 95//29 134//29 204//29 194//29
f 135//24 96//24 195//24 205//24
f 96//28 97//28 196//28 195//28
f 132//2 131//2 201//2 202//2
f 98//30 99//30 198//30 197//30
f 134//4 133//4 203//4 204//4
f 19//10 220//10 211//10 1//10
f 17//32 219//32 220//32 19//32
f 15//8 218//8 219//8 17//8
f 13//25 217//25 218//25 15//25
f 11//6 216//6 217//6 13//6
f 9//31 215//31 216//31 11//31
f 7//4 214//4 215//4 9//4
f 5//30 213//30 214//30 7//30
f 3//2 212//2 213//2 5//2
f 1//28 211//28 212//28 3//28
f 223//28 222//28 221//28 232//28
f 233//30 225//30 224//30 234//30
f 235//31 227//31 226//31 236//31
f 237//25 229//25 228//25 238//25
f 239//32 231//32 230//32 240//32
f 6//33 8//33 224//33 225//33
f 2//34 4//34 221//34 222//34
f 218//3 217//3 237//3 238//3
f 217//21 14//21 229//21 237//21
f 211//27 2//27 222//27 223//27
f 16//22 218//22 238//22 228//22
f 216//3 215//3 235//3 236//3
f 219//29 18//29 231//29 239//29
f 18//35 20//35 230//35 231//35
f 4//24 212//24 232//24 221//24
f 20//26 220//26 240//26 230//26
f 213//23 6//23 225//23 233//23
f 214//3 213//3 233//3 234//3
f 14//7 16//7 228//7 229//7
f 8//11 214//11 234//11 224//11
